%FSLAX25Y25*%
%MOIN*%
G70*
G01*
G75*
G04 Layer_Color=8388736*
%ADD10R,0.03937X0.07874*%
%ADD11R,0.03543X0.03740*%
%ADD12R,0.03937X0.05709*%
%ADD13R,0.03740X0.03543*%
%ADD14O,0.02000X0.04000*%
%ADD15R,0.02000X0.04000*%
%ADD16O,0.01181X0.07087*%
%ADD17O,0.07087X0.01181*%
%ADD18O,0.02400X0.08000*%
%ADD19C,0.01000*%
%ADD20C,0.05512*%
%ADD21R,0.05512X0.05512*%
%ADD22O,0.05512X0.04724*%
%ADD23R,0.05512X0.04724*%
%ADD24C,0.07284*%
%ADD25R,0.07284X0.07284*%
%ADD26C,0.19685*%
%ADD27C,0.03000*%
%ADD28C,0.00787*%
%ADD29C,0.00984*%
%ADD30C,0.02362*%
%ADD31C,0.00394*%
%ADD32C,0.00800*%
%ADD33R,0.04737X0.08674*%
%ADD34R,0.04343X0.04540*%
%ADD35R,0.04737X0.06509*%
%ADD36R,0.04540X0.04343*%
%ADD37O,0.02800X0.04800*%
%ADD38R,0.02800X0.04800*%
%ADD39O,0.01981X0.07887*%
%ADD40O,0.07887X0.01981*%
%ADD41O,0.03200X0.08800*%
%ADD42C,0.06312*%
%ADD43R,0.06312X0.06312*%
%ADD44O,0.06312X0.05524*%
%ADD45R,0.06312X0.05524*%
%ADD46C,0.08083*%
%ADD47R,0.08083X0.08083*%
%ADD48C,0.20485*%
%ADD49C,0.03800*%
D33*
X393500Y495000D02*
D03*
Y539000D02*
D03*
D34*
X444500Y591051D02*
D03*
Y584949D02*
D03*
X451500Y584949D02*
D03*
Y591051D02*
D03*
X472500D02*
D03*
Y584949D02*
D03*
X465500Y591051D02*
D03*
Y584949D02*
D03*
X458500D02*
D03*
Y591051D02*
D03*
X377500Y528051D02*
D03*
Y521949D02*
D03*
X413500Y583449D02*
D03*
Y589551D02*
D03*
X423000Y589551D02*
D03*
Y583449D02*
D03*
X404000Y583449D02*
D03*
Y589551D02*
D03*
X466000Y448949D02*
D03*
Y455051D02*
D03*
X473031Y448945D02*
D03*
Y455047D02*
D03*
X485500Y494449D02*
D03*
Y500551D02*
D03*
Y509949D02*
D03*
Y516051D02*
D03*
X388700Y444349D02*
D03*
Y450451D02*
D03*
X377500Y504949D02*
D03*
Y511051D02*
D03*
D35*
X413224Y572500D02*
D03*
X403776D02*
D03*
D36*
X386949Y481000D02*
D03*
X393051D02*
D03*
X386051Y572000D02*
D03*
X379949D02*
D03*
X386051Y589748D02*
D03*
X379949D02*
D03*
X386949Y475000D02*
D03*
X393051D02*
D03*
D37*
X496740Y594000D02*
D03*
X489260D02*
D03*
X496740Y583000D02*
D03*
X493000D02*
D03*
D38*
X489260D02*
D03*
D39*
X421130Y530776D02*
D03*
X423098D02*
D03*
X425067D02*
D03*
X427035D02*
D03*
X429004D02*
D03*
X430972D02*
D03*
X432941D02*
D03*
X434909D02*
D03*
X436878D02*
D03*
X438846D02*
D03*
X440815D02*
D03*
X442783D02*
D03*
Y498886D02*
D03*
X440815D02*
D03*
X438846D02*
D03*
X436878D02*
D03*
X434909D02*
D03*
X432941D02*
D03*
X430972D02*
D03*
X429004D02*
D03*
X427035D02*
D03*
X425067D02*
D03*
X423098D02*
D03*
X421130D02*
D03*
D40*
X447902Y525658D02*
D03*
Y523689D02*
D03*
Y521721D02*
D03*
Y519752D02*
D03*
Y517783D02*
D03*
Y515815D02*
D03*
Y513846D02*
D03*
Y511878D02*
D03*
Y509909D02*
D03*
Y507941D02*
D03*
Y505972D02*
D03*
Y504004D02*
D03*
X416012D02*
D03*
Y505972D02*
D03*
Y507941D02*
D03*
Y509909D02*
D03*
Y511878D02*
D03*
Y513846D02*
D03*
Y515815D02*
D03*
Y517783D02*
D03*
Y519752D02*
D03*
Y521721D02*
D03*
Y523689D02*
D03*
Y525658D02*
D03*
D41*
X398500Y464429D02*
D03*
X403500D02*
D03*
X408500D02*
D03*
X413500D02*
D03*
X418500D02*
D03*
X423500D02*
D03*
X428500D02*
D03*
X433500D02*
D03*
X438500D02*
D03*
X443500D02*
D03*
Y430571D02*
D03*
X438500D02*
D03*
X433500D02*
D03*
X428500D02*
D03*
X423500D02*
D03*
X418500D02*
D03*
X413500D02*
D03*
X408500D02*
D03*
X403500D02*
D03*
X398500D02*
D03*
D42*
X450000Y397000D02*
D03*
X440000D02*
D03*
X460000D02*
D03*
X384500Y396500D02*
D03*
X374500D02*
D03*
X394500D02*
D03*
D43*
X430000Y397000D02*
D03*
X364500Y396500D02*
D03*
D44*
X520490Y447563D02*
D03*
Y455437D02*
D03*
X520500Y411663D02*
D03*
Y419537D02*
D03*
X517200Y563637D02*
D03*
Y547889D02*
D03*
Y555763D02*
D03*
X517000Y515437D02*
D03*
Y499689D02*
D03*
Y507563D02*
D03*
D45*
X520490Y463311D02*
D03*
X520500Y427411D02*
D03*
X517200Y540015D02*
D03*
X517000Y491815D02*
D03*
D46*
X361500Y591000D02*
D03*
D47*
Y571000D02*
D03*
D48*
X341000Y594702D02*
D03*
X520000D02*
D03*
Y392402D02*
D03*
X341200D02*
D03*
D49*
X480740Y598000D02*
D03*
X457500Y466000D02*
D03*
X495400Y418800D02*
D03*
X480500Y580000D02*
D03*
X442500Y455500D02*
D03*
X425000D02*
D03*
X457500Y459500D02*
D03*
X448100Y462400D02*
D03*
X440700Y486100D02*
D03*
X425600Y514500D02*
D03*
X443000Y419400D02*
D03*
M02*
