%FSLAX25Y25*%
%MOIN*%
G70*
G01*
G75*
G04 Layer_Color=2752767*
%ADD10O,0.02400X0.08000*%
%ADD11R,0.03740X0.03543*%
%ADD12R,0.03543X0.03740*%
%ADD13O,0.07087X0.01181*%
%ADD14O,0.01181X0.07087*%
%ADD15R,0.02000X0.04000*%
%ADD16O,0.02000X0.04000*%
%ADD17R,0.03937X0.05709*%
%ADD18R,0.03937X0.07874*%
%ADD19C,0.01000*%
%ADD20O,0.05512X0.04724*%
%ADD21R,0.05512X0.04724*%
%ADD22C,0.19685*%
%ADD23R,0.07284X0.07284*%
%ADD24C,0.07284*%
%ADD25C,0.05512*%
%ADD26R,0.05512X0.05512*%
%ADD27C,0.03000*%
%ADD28C,0.00984*%
%ADD29C,0.02362*%
%ADD30C,0.00787*%
%ADD31C,0.00394*%
%ADD32C,0.00800*%
%ADD33O,0.03200X0.08800*%
%ADD34R,0.04540X0.04343*%
%ADD35R,0.04343X0.04540*%
%ADD36O,0.07887X0.01981*%
%ADD37O,0.01981X0.07887*%
%ADD38R,0.02800X0.04800*%
%ADD39O,0.02800X0.04800*%
%ADD40R,0.04737X0.06509*%
%ADD41R,0.04737X0.08674*%
%ADD42O,0.06312X0.05524*%
%ADD43R,0.06312X0.05524*%
%ADD44C,0.20485*%
%ADD45R,0.08083X0.08083*%
%ADD46C,0.08083*%
%ADD47C,0.06312*%
%ADD48R,0.06312X0.06312*%
%ADD49C,0.03800*%
%ADD50C,0.00500*%
%ADD51C,0.00667*%
%ADD52C,0.01600*%
D19*
X589700Y352698D02*
Y346700D01*
X592699D01*
X593699Y347700D01*
Y351698D01*
X592699Y352698D01*
X589700D01*
X595698Y350699D02*
Y346700D01*
Y348699D01*
X596698Y349699D01*
X597697Y350699D01*
X598697D01*
X601696Y346700D02*
X603695D01*
X602696D01*
Y350699D01*
X601696D01*
X606695Y346700D02*
X608694D01*
X607694D01*
Y352698D01*
X606695D01*
X611693Y346700D02*
X613692D01*
X612693D01*
Y352698D01*
X611693D01*
X622689D02*
Y346700D01*
X625688D01*
X626688Y347700D01*
Y351698D01*
X625688Y352698D01*
X622689D01*
X628687Y350699D02*
Y346700D01*
Y348699D01*
X629687Y349699D01*
X630687Y350699D01*
X631686D01*
X635685D02*
X637684D01*
X638684Y349699D01*
Y346700D01*
X635685D01*
X634685Y347700D01*
X635685Y348699D01*
X638684D01*
X640684Y350699D02*
Y347700D01*
X641683Y346700D01*
X642683Y347700D01*
X643682Y346700D01*
X644682Y347700D01*
Y350699D01*
X646682Y346700D02*
X648681D01*
X647681D01*
Y350699D01*
X646682D01*
X651680Y346700D02*
Y350699D01*
X654679D01*
X655679Y349699D01*
Y346700D01*
X659677Y344701D02*
X660677D01*
X661677Y345700D01*
Y350699D01*
X658678D01*
X657678Y349699D01*
Y347700D01*
X658678Y346700D01*
X661677D01*
X663676D02*
Y347700D01*
X664676D01*
Y346700D01*
X663676D01*
X639588Y419700D02*
X641587D01*
X640587D01*
Y425698D01*
X639588Y424698D01*
X644586Y419700D02*
X646585D01*
X645586D01*
Y425698D01*
X644586Y424698D01*
X709169Y419700D02*
X711168D01*
X710169D01*
Y425698D01*
X709169Y424698D01*
X718166Y425698D02*
X714167D01*
Y422699D01*
X716167Y423699D01*
X717166D01*
X718166Y422699D01*
Y420700D01*
X717166Y419700D01*
X715167D01*
X714167Y420700D01*
X720165Y419700D02*
Y423699D01*
X721165D01*
X722165Y422699D01*
Y419700D01*
Y422699D01*
X723164Y423699D01*
X724164Y422699D01*
Y419700D01*
X726163D02*
X728163D01*
X727163D01*
Y423699D01*
X726163D01*
X731162Y419700D02*
X733161D01*
X732162D01*
Y425698D01*
X731162D01*
X744158Y419700D02*
X742158Y421699D01*
Y423699D01*
X744158Y425698D01*
X747157Y424698D02*
X748156Y425698D01*
X750156D01*
X751155Y424698D01*
Y420700D01*
X750156Y419700D01*
X748156D01*
X747157Y420700D01*
Y424698D01*
X753155Y419700D02*
Y420700D01*
X754154D01*
Y419700D01*
X753155D01*
X758153Y424698D02*
X759153Y425698D01*
X761152D01*
X762152Y424698D01*
Y423699D01*
X761152Y422699D01*
X760152D01*
X761152D01*
X762152Y421699D01*
Y420700D01*
X761152Y419700D01*
X759153D01*
X758153Y420700D01*
X764151Y424698D02*
X765151Y425698D01*
X767150D01*
X768150Y424698D01*
Y423699D01*
X767150Y422699D01*
X768150Y421699D01*
Y420700D01*
X767150Y419700D01*
X765151D01*
X764151Y420700D01*
Y421699D01*
X765151Y422699D01*
X764151Y423699D01*
Y424698D01*
X765151Y422699D02*
X767150D01*
X770149Y419700D02*
X772149D01*
X771149D01*
Y425698D01*
X770149Y424698D01*
X775148Y419700D02*
Y423699D01*
X776147D01*
X777147Y422699D01*
Y419700D01*
Y422699D01*
X778147Y423699D01*
X779146Y422699D01*
Y419700D01*
X781146D02*
Y423699D01*
X782145D01*
X783145Y422699D01*
Y419700D01*
Y422699D01*
X784145Y423699D01*
X785144Y422699D01*
Y419700D01*
X787144D02*
X789143Y421699D01*
Y423699D01*
X787144Y425698D01*
X843529Y419700D02*
Y425698D01*
X846528D01*
X847528Y424698D01*
Y422699D01*
X846528Y421699D01*
X843529D01*
X849527Y425698D02*
X853526D01*
X851527D01*
Y419700D01*
X855525Y425698D02*
Y419700D01*
Y422699D01*
X859524D01*
Y425698D01*
Y419700D01*
X893917D02*
Y425698D01*
X896916D01*
X897916Y424698D01*
Y422699D01*
X896916Y421699D01*
X893917D01*
X895916D02*
X897916Y419700D01*
X900915D02*
X902914D01*
X903914Y420700D01*
Y422699D01*
X902914Y423699D01*
X900915D01*
X899915Y422699D01*
Y420700D01*
X900915Y419700D01*
X905913Y423699D02*
Y420700D01*
X906913Y419700D01*
X909912D01*
Y423699D01*
X911911Y419700D02*
Y423699D01*
X914910D01*
X915910Y422699D01*
Y419700D01*
X921908Y425698D02*
Y419700D01*
X918909D01*
X917909Y420700D01*
Y422699D01*
X918909Y423699D01*
X921908D01*
X639588Y407700D02*
X641587D01*
X640587D01*
Y413698D01*
X639588Y412698D01*
X647585Y407700D02*
Y413698D01*
X644586Y410699D01*
X648585D01*
X709169Y412698D02*
X710169Y413698D01*
X712168D01*
X713168Y412698D01*
Y411699D01*
X712168Y410699D01*
X711168D01*
X712168D01*
X713168Y409699D01*
Y408700D01*
X712168Y407700D01*
X710169D01*
X709169Y408700D01*
X715167Y407700D02*
X717166D01*
X716167D01*
Y413698D01*
X715167Y412698D01*
X720165Y407700D02*
Y408700D01*
X721165D01*
Y407700D01*
X720165D01*
X728163D02*
Y413698D01*
X725164Y410699D01*
X729163D01*
X731162Y408700D02*
X732162Y407700D01*
X734161D01*
X735160Y408700D01*
Y412698D01*
X734161Y413698D01*
X732162D01*
X731162Y412698D01*
Y411699D01*
X732162Y410699D01*
X735160D01*
X741159Y413698D02*
X739159Y412698D01*
X737160Y410699D01*
Y408700D01*
X738160Y407700D01*
X740159D01*
X741159Y408700D01*
Y409699D01*
X740159Y410699D01*
X737160D01*
X743158Y407700D02*
Y411699D01*
X744158D01*
X745157Y410699D01*
Y407700D01*
Y410699D01*
X746157Y411699D01*
X747157Y410699D01*
Y407700D01*
X749156D02*
X751155D01*
X750156D01*
Y411699D01*
X749156D01*
X754154Y407700D02*
X756154D01*
X755154D01*
Y413698D01*
X754154D01*
X767150Y407700D02*
X765151Y409699D01*
Y411699D01*
X767150Y413698D01*
X770149Y412698D02*
X771149Y413698D01*
X773148D01*
X774148Y412698D01*
Y408700D01*
X773148Y407700D01*
X771149D01*
X770149Y408700D01*
Y412698D01*
X776147Y407700D02*
Y408700D01*
X777147D01*
Y407700D01*
X776147D01*
X781146Y412698D02*
X782145Y413698D01*
X784145D01*
X785144Y412698D01*
Y411699D01*
X784145Y410699D01*
X785144Y409699D01*
Y408700D01*
X784145Y407700D01*
X782145D01*
X781146Y408700D01*
Y409699D01*
X782145Y410699D01*
X781146Y411699D01*
Y412698D01*
X782145Y410699D02*
X784145D01*
X787144Y407700D02*
Y411699D01*
X788143D01*
X789143Y410699D01*
Y407700D01*
Y410699D01*
X790143Y411699D01*
X791142Y410699D01*
Y407700D01*
X793142D02*
Y411699D01*
X794141D01*
X795141Y410699D01*
Y407700D01*
Y410699D01*
X796141Y411699D01*
X797141Y410699D01*
Y407700D01*
X799140D02*
X801139Y409699D01*
Y411699D01*
X799140Y413698D01*
X843529Y407700D02*
Y413698D01*
X846528D01*
X847528Y412698D01*
Y410699D01*
X846528Y409699D01*
X843529D01*
X849527Y413698D02*
X853526D01*
X851527D01*
Y407700D01*
X855525Y413698D02*
Y407700D01*
Y410699D01*
X859524D01*
Y413698D01*
Y407700D01*
X893917D02*
Y413698D01*
X896916D01*
X897916Y412698D01*
Y410699D01*
X896916Y409699D01*
X893917D01*
X895916D02*
X897916Y407700D01*
X900915D02*
X902914D01*
X903914Y408700D01*
Y410699D01*
X902914Y411699D01*
X900915D01*
X899915Y410699D01*
Y408700D01*
X900915Y407700D01*
X905913Y411699D02*
Y408700D01*
X906913Y407700D01*
X909912D01*
Y411699D01*
X911911Y407700D02*
Y411699D01*
X914910D01*
X915910Y410699D01*
Y407700D01*
X921908Y413698D02*
Y407700D01*
X918909D01*
X917909Y408700D01*
Y410699D01*
X918909Y411699D01*
X921908D01*
X639588Y400698D02*
X640587Y401698D01*
X642587D01*
X643586Y400698D01*
Y399699D01*
X642587Y398699D01*
X643586Y397699D01*
Y396700D01*
X642587Y395700D01*
X640587D01*
X639588Y396700D01*
Y397699D01*
X640587Y398699D01*
X639588Y399699D01*
Y400698D01*
X640587Y398699D02*
X642587D01*
X709169Y400698D02*
X710169Y401698D01*
X712168D01*
X713168Y400698D01*
Y399699D01*
X712168Y398699D01*
X711168D01*
X712168D01*
X713168Y397699D01*
Y396700D01*
X712168Y395700D01*
X710169D01*
X709169Y396700D01*
X715167D02*
X716167Y395700D01*
X718166D01*
X719166Y396700D01*
Y400698D01*
X718166Y401698D01*
X716167D01*
X715167Y400698D01*
Y399699D01*
X716167Y398699D01*
X719166D01*
X721165Y395700D02*
Y396700D01*
X722165D01*
Y395700D01*
X721165D01*
X726163Y400698D02*
X727163Y401698D01*
X729163D01*
X730162Y400698D01*
Y399699D01*
X729163Y398699D01*
X728163D01*
X729163D01*
X730162Y397699D01*
Y396700D01*
X729163Y395700D01*
X727163D01*
X726163Y396700D01*
X732162Y401698D02*
X736160D01*
Y400698D01*
X732162Y396700D01*
Y395700D01*
X738160D02*
Y399699D01*
X739159D01*
X740159Y398699D01*
Y395700D01*
Y398699D01*
X741159Y399699D01*
X742158Y398699D01*
Y395700D01*
X744158D02*
X746157D01*
X745157D01*
Y399699D01*
X744158D01*
X749156Y395700D02*
X751155D01*
X750156D01*
Y401698D01*
X749156D01*
X762152Y395700D02*
X760152Y397699D01*
Y399699D01*
X762152Y401698D01*
X765151Y395700D02*
X767150D01*
X766151D01*
Y401698D01*
X765151Y400698D01*
X770149Y395700D02*
Y399699D01*
X771149D01*
X772149Y398699D01*
Y395700D01*
Y398699D01*
X773148Y399699D01*
X774148Y398699D01*
Y395700D01*
X776147D02*
Y399699D01*
X777147D01*
X778147Y398699D01*
Y395700D01*
Y398699D01*
X779146Y399699D01*
X780146Y398699D01*
Y395700D01*
X782145D02*
X784145Y397699D01*
Y399699D01*
X782145Y401698D01*
X843529Y395700D02*
Y401698D01*
X846528D01*
X847528Y400698D01*
Y398699D01*
X846528Y397699D01*
X843529D01*
X849527Y401698D02*
X853526D01*
X851527D01*
Y395700D01*
X855525Y401698D02*
Y395700D01*
Y398699D01*
X859524D01*
Y401698D01*
Y395700D01*
X893917D02*
Y401698D01*
X896916D01*
X897916Y400698D01*
Y398699D01*
X896916Y397699D01*
X893917D01*
X895916D02*
X897916Y395700D01*
X900915D02*
X902914D01*
X903914Y396700D01*
Y398699D01*
X902914Y399699D01*
X900915D01*
X899915Y398699D01*
Y396700D01*
X900915Y395700D01*
X905913Y399699D02*
Y396700D01*
X906913Y395700D01*
X909912D01*
Y399699D01*
X911911Y395700D02*
Y399699D01*
X914910D01*
X915910Y398699D01*
Y395700D01*
X921908Y401698D02*
Y395700D01*
X918909D01*
X917909Y396700D01*
Y398699D01*
X918909Y399699D01*
X921908D01*
X643586Y383700D02*
X639588D01*
X643586Y387699D01*
Y388698D01*
X642587Y389698D01*
X640587D01*
X639588Y388698D01*
X712168Y383700D02*
Y389698D01*
X709169Y386699D01*
X713168D01*
X715167Y388698D02*
X716167Y389698D01*
X718166D01*
X719166Y388698D01*
Y387699D01*
X718166Y386699D01*
X717166D01*
X718166D01*
X719166Y385699D01*
Y384700D01*
X718166Y383700D01*
X716167D01*
X715167Y384700D01*
X721165Y383700D02*
Y384700D01*
X722165D01*
Y383700D01*
X721165D01*
X726163Y388698D02*
X727163Y389698D01*
X729163D01*
X730162Y388698D01*
Y387699D01*
X729163Y386699D01*
X728163D01*
X729163D01*
X730162Y385699D01*
Y384700D01*
X729163Y383700D01*
X727163D01*
X726163Y384700D01*
X732162Y388698D02*
X733161Y389698D01*
X735160D01*
X736160Y388698D01*
Y384700D01*
X735160Y383700D01*
X733161D01*
X732162Y384700D01*
Y388698D01*
X738160Y389698D02*
X742158D01*
Y388698D01*
X738160Y384700D01*
Y383700D01*
X744158D02*
Y387699D01*
X745157D01*
X746157Y386699D01*
Y383700D01*
Y386699D01*
X747157Y387699D01*
X748156Y386699D01*
Y383700D01*
X750156D02*
X752155D01*
X751155D01*
Y387699D01*
X750156D01*
X755154Y383700D02*
X757153D01*
X756154D01*
Y389698D01*
X755154D01*
X768150Y383700D02*
X766151Y385699D01*
Y387699D01*
X768150Y389698D01*
X771149Y383700D02*
X773148D01*
X772149D01*
Y389698D01*
X771149Y388698D01*
X776147Y383700D02*
Y384700D01*
X777147D01*
Y383700D01*
X776147D01*
X781146D02*
X783145D01*
X782145D01*
Y389698D01*
X781146Y388698D01*
X786144Y383700D02*
Y387699D01*
X787144D01*
X788143Y386699D01*
Y383700D01*
Y386699D01*
X789143Y387699D01*
X790143Y386699D01*
Y383700D01*
X792142D02*
Y387699D01*
X793142D01*
X794141Y386699D01*
Y383700D01*
Y386699D01*
X795141Y387699D01*
X796141Y386699D01*
Y383700D01*
X798140D02*
X800140Y385699D01*
Y387699D01*
X798140Y389698D01*
X843529Y383700D02*
Y389698D01*
X846528D01*
X847528Y388698D01*
Y386699D01*
X846528Y385699D01*
X843529D01*
X849527Y389698D02*
X853526D01*
X851527D01*
Y383700D01*
X855525Y389698D02*
Y383700D01*
Y386699D01*
X859524D01*
Y389698D01*
Y383700D01*
X893917D02*
Y389698D01*
X896916D01*
X897916Y388698D01*
Y386699D01*
X896916Y385699D01*
X893917D01*
X895916D02*
X897916Y383700D01*
X900915D02*
X902914D01*
X903914Y384700D01*
Y386699D01*
X902914Y387699D01*
X900915D01*
X899915Y386699D01*
Y384700D01*
X900915Y383700D01*
X905913Y387699D02*
Y384700D01*
X906913Y383700D01*
X909912D01*
Y387699D01*
X911911Y383700D02*
Y387699D01*
X914910D01*
X915910Y386699D01*
Y383700D01*
X921908Y389698D02*
Y383700D01*
X918909D01*
X917909Y384700D01*
Y386699D01*
X918909Y387699D01*
X921908D01*
X642587Y371700D02*
Y377698D01*
X639588Y374699D01*
X643586D01*
X709169Y371700D02*
X711168D01*
X710169D01*
Y377698D01*
X709169Y376698D01*
X718166Y371700D02*
X714167D01*
X718166Y375699D01*
Y376698D01*
X717166Y377698D01*
X715167D01*
X714167Y376698D01*
X720165Y372700D02*
X721165Y371700D01*
X723164D01*
X724164Y372700D01*
Y376698D01*
X723164Y377698D01*
X721165D01*
X720165Y376698D01*
Y375699D01*
X721165Y374699D01*
X724164D01*
X726163Y371700D02*
Y372700D01*
X727163D01*
Y371700D01*
X726163D01*
X731162Y372700D02*
X732162Y371700D01*
X734161D01*
X735160Y372700D01*
Y376698D01*
X734161Y377698D01*
X732162D01*
X731162Y376698D01*
Y375699D01*
X732162Y374699D01*
X735160D01*
X741159Y371700D02*
X737160D01*
X741159Y375699D01*
Y376698D01*
X740159Y377698D01*
X738160D01*
X737160Y376698D01*
X743158Y371700D02*
X745157D01*
X744158D01*
Y377698D01*
X743158Y376698D01*
X748156Y371700D02*
Y375699D01*
X749156D01*
X750156Y374699D01*
Y371700D01*
Y374699D01*
X751155Y375699D01*
X752155Y374699D01*
Y371700D01*
X754154D02*
X756154D01*
X755154D01*
Y375699D01*
X754154D01*
X759153Y371700D02*
X761152D01*
X760152D01*
Y377698D01*
X759153D01*
X772149Y371700D02*
X770149Y373699D01*
Y375699D01*
X772149Y377698D01*
X775148Y376698D02*
X776147Y377698D01*
X778147D01*
X779146Y376698D01*
Y375699D01*
X778147Y374699D01*
X777147D01*
X778147D01*
X779146Y373699D01*
Y372700D01*
X778147Y371700D01*
X776147D01*
X775148Y372700D01*
X781146Y371700D02*
Y372700D01*
X782145D01*
Y371700D01*
X781146D01*
X786144Y376698D02*
X787144Y377698D01*
X789143D01*
X790143Y376698D01*
Y375699D01*
X789143Y374699D01*
X788143D01*
X789143D01*
X790143Y373699D01*
Y372700D01*
X789143Y371700D01*
X787144D01*
X786144Y372700D01*
X792142Y371700D02*
Y375699D01*
X793142D01*
X794141Y374699D01*
Y371700D01*
Y374699D01*
X795141Y375699D01*
X796141Y374699D01*
Y371700D01*
X798140D02*
Y375699D01*
X799140D01*
X800140Y374699D01*
Y371700D01*
Y374699D01*
X801139Y375699D01*
X802139Y374699D01*
Y371700D01*
X804138D02*
X806137Y373699D01*
Y375699D01*
X804138Y377698D01*
X843529Y371700D02*
Y377698D01*
X846528D01*
X847528Y376698D01*
Y374699D01*
X846528Y373699D01*
X843529D01*
X849527Y377698D02*
X853526D01*
X851527D01*
Y371700D01*
X855525Y377698D02*
Y371700D01*
Y374699D01*
X859524D01*
Y377698D01*
Y371700D01*
X893917D02*
Y377698D01*
X896916D01*
X897916Y376698D01*
Y374699D01*
X896916Y373699D01*
X893917D01*
X895916D02*
X897916Y371700D01*
X900915D02*
X902914D01*
X903914Y372700D01*
Y374699D01*
X902914Y375699D01*
X900915D01*
X899915Y374699D01*
Y372700D01*
X900915Y371700D01*
X905913Y375699D02*
Y372700D01*
X906913Y371700D01*
X909912D01*
Y375699D01*
X911911Y371700D02*
Y375699D01*
X914910D01*
X915910Y374699D01*
Y371700D01*
X921908Y377698D02*
Y371700D01*
X918909D01*
X917909Y372700D01*
Y374699D01*
X918909Y375699D01*
X921908D01*
X639588Y364698D02*
X640587Y365698D01*
X642587D01*
X643586Y364698D01*
Y363699D01*
X642587Y362699D01*
X641587D01*
X642587D01*
X643586Y361699D01*
Y360700D01*
X642587Y359700D01*
X640587D01*
X639588Y360700D01*
X645586D02*
X646585Y359700D01*
X648585D01*
X649584Y360700D01*
Y364698D01*
X648585Y365698D01*
X646585D01*
X645586Y364698D01*
Y363699D01*
X646585Y362699D01*
X649584D01*
X660384Y365698D02*
X664383D01*
X662384D01*
Y359700D01*
X667382D02*
X669381D01*
X670381Y360700D01*
Y362699D01*
X669381Y363699D01*
X667382D01*
X666382Y362699D01*
Y360700D01*
X667382Y359700D01*
X673380Y364698D02*
Y363699D01*
X672380D01*
X674380D01*
X673380D01*
Y360700D01*
X674380Y359700D01*
X678378Y363699D02*
X680378D01*
X681378Y362699D01*
Y359700D01*
X678378D01*
X677379Y360700D01*
X678378Y361699D01*
X681378D01*
X683377Y359700D02*
X685376D01*
X684377D01*
Y365698D01*
X683377D01*
D32*
X594000Y374700D02*
G03*
X594000Y374700I-2400J0D01*
G01*
D50*
X515000Y505563D02*
Y509563D01*
X519000D01*
Y505563D01*
X515000D01*
Y489815D02*
Y493815D01*
X519000D01*
Y489815D01*
X515000D01*
Y497689D02*
Y501689D01*
X519000D01*
Y497689D01*
X515000D01*
Y513437D02*
Y517437D01*
X519000D01*
Y513437D01*
X515000D01*
X515200Y553763D02*
Y557763D01*
X519200D01*
Y553763D01*
X515200D01*
Y538015D02*
Y542015D01*
X519200D01*
Y538015D01*
X515200D01*
Y545889D02*
Y549889D01*
X519200D01*
Y545889D01*
X515200D01*
Y561637D02*
Y565637D01*
X519200D01*
Y561637D01*
X515200D01*
X518500Y417537D02*
Y421537D01*
X522500D01*
Y417537D01*
X518500D01*
Y425411D02*
Y429411D01*
X522500D01*
Y425411D01*
X518500D01*
Y409663D02*
Y413663D01*
X522500D01*
Y409663D01*
X518500D01*
X361500Y569000D02*
X359500Y573000D01*
X363500D01*
X361500Y569000D01*
Y589000D02*
X359500Y593000D01*
X363500D01*
X361500Y589000D01*
X394500Y394500D02*
X395500Y395500D01*
X396500D01*
X395500Y396500D01*
X396500Y397500D01*
X395500D01*
X394500Y398500D01*
X393500Y397500D01*
X392500D01*
X393500Y396500D01*
X392500Y395500D01*
X393500D01*
X394500Y394500D01*
X364500D02*
X365500Y395500D01*
X366500D01*
X365500Y396500D01*
X366500Y397500D01*
X365500D01*
X364500Y398500D01*
X363500Y397500D01*
X362500D01*
X363500Y396500D01*
X362500Y395500D01*
X363500D01*
X364500Y394500D01*
X374500D02*
X375500Y395500D01*
X376500D01*
X375500Y396500D01*
X376500Y397500D01*
X375500D01*
X374500Y398500D01*
X373500Y397500D01*
X372500D01*
X373500Y396500D01*
X372500Y395500D01*
X373500D01*
X374500Y394500D01*
X384500D02*
X385500Y395500D01*
X386500D01*
X385500Y396500D01*
X386500Y397500D01*
X385500D01*
X384500Y398500D01*
X383500Y397500D01*
X382500D01*
X383500Y396500D01*
X382500Y395500D01*
X383500D01*
X384500Y394500D01*
X518490Y453437D02*
Y457437D01*
X522490D01*
Y453437D01*
X518490D01*
Y461311D02*
Y465311D01*
X522490D01*
Y461311D01*
X518490D01*
Y445563D02*
Y449563D01*
X522490D01*
Y445563D01*
X518490D01*
X460000Y395000D02*
X461000Y396000D01*
X462000D01*
X461000Y397000D01*
X462000Y398000D01*
X461000D01*
X460000Y399000D01*
X459000Y398000D01*
X458000D01*
X459000Y397000D01*
X458000Y396000D01*
X459000D01*
X460000Y395000D01*
X430000D02*
X431000Y396000D01*
X432000D01*
X431000Y397000D01*
X432000Y398000D01*
X431000D01*
X430000Y399000D01*
X429000Y398000D01*
X428000D01*
X429000Y397000D01*
X428000Y396000D01*
X429000D01*
X430000Y395000D01*
X440000D02*
X441000Y396000D01*
X442000D01*
X441000Y397000D01*
X442000Y398000D01*
X441000D01*
X440000Y399000D01*
X439000Y398000D01*
X438000D01*
X439000Y397000D01*
X438000Y396000D01*
X439000D01*
X440000Y395000D01*
X450000D02*
X451000Y396000D01*
X452000D01*
X451000Y397000D01*
X452000Y398000D01*
X451000D01*
X450000Y399000D01*
X449000Y398000D01*
X448000D01*
X449000Y397000D01*
X448000Y396000D01*
X449000D01*
X450000Y395000D01*
X441000Y417400D02*
X442000Y419400D01*
X441000Y421400D01*
X443000Y420400D01*
X445000Y421400D01*
X444000Y419400D01*
X445000Y417400D01*
X443000Y418400D01*
X441000Y417400D01*
X423600Y512500D02*
X424600Y514500D01*
X423600Y516500D01*
X425600Y515500D01*
X427600Y516500D01*
X426600Y514500D01*
X427600Y512500D01*
X425600Y513500D01*
X423600Y512500D01*
X438700Y484100D02*
X439700Y486100D01*
X438700Y488100D01*
X440700Y487100D01*
X442700Y488100D01*
X441700Y486100D01*
X442700Y484100D01*
X440700Y485100D01*
X438700Y484100D01*
X446100Y460400D02*
X447100Y462400D01*
X446100Y464400D01*
X448100Y463400D01*
X450100Y464400D01*
X449100Y462400D01*
X450100Y460400D01*
X448100Y461400D01*
X446100Y460400D01*
X455500Y457500D02*
X456500Y459500D01*
X455500Y461500D01*
X457500Y460500D01*
X459500Y461500D01*
X458500Y459500D01*
X459500Y457500D01*
X457500Y458500D01*
X455500Y457500D01*
X423000Y453500D02*
X424000Y455500D01*
X423000Y457500D01*
X425000Y456500D01*
X427000Y457500D01*
X426000Y455500D01*
X427000Y453500D01*
X425000Y454500D01*
X423000Y453500D01*
X440500D02*
X441500Y455500D01*
X440500Y457500D01*
X442500Y456500D01*
X444500Y457500D01*
X443500Y455500D01*
X444500Y453500D01*
X442500Y454500D01*
X440500Y453500D01*
X478500Y578000D02*
X479500Y580000D01*
X478500Y582000D01*
X480500Y581000D01*
X482500Y582000D01*
X481500Y580000D01*
X482500Y578000D01*
X480500Y579000D01*
X478500Y578000D01*
X493400Y416800D02*
X494400Y418800D01*
X493400Y420800D01*
X495400Y419800D01*
X497400Y420800D01*
X496400Y418800D01*
X497400Y416800D01*
X495400Y417800D01*
X493400Y416800D01*
X455500Y464000D02*
X456500Y466000D01*
X455500Y468000D01*
X457500Y467000D01*
X459500Y468000D01*
X458500Y466000D01*
X459500Y464000D01*
X457500Y465000D01*
X455500Y464000D01*
X478740Y596000D02*
X479740Y598000D01*
X478740Y600000D01*
X480740Y599000D01*
X482740Y600000D01*
X481740Y598000D01*
X482740Y596000D01*
X480740Y597000D01*
X478740Y596000D01*
X589200Y420300D02*
X590400Y422700D01*
X589200Y425100D01*
X591600Y423900D01*
X594000Y425100D01*
X592800Y422700D01*
X594000Y420300D01*
X591600Y421500D01*
X589200Y420300D01*
Y408300D02*
Y413100D01*
X594000D01*
Y408300D01*
X589200D01*
X591600Y396300D02*
X592800Y397500D01*
X594000D01*
X592800Y398700D01*
X594000Y399900D01*
X592800D01*
X591600Y401100D01*
X590400Y399900D01*
X589200D01*
X590400Y398700D01*
X589200Y397500D01*
X590400D01*
X591600Y396300D01*
Y384300D02*
X589200Y389100D01*
X594000D01*
X591600Y384300D01*
D51*
X343200Y392402D02*
G03*
X343200Y392402I-2000J0D01*
G01*
X522000D02*
G03*
X522000Y392402I-2000J0D01*
G01*
Y594702D02*
G03*
X522000Y594702I-2000J0D01*
G01*
X343000D02*
G03*
X343000Y594702I-2000J0D01*
G01*
D52*
X593998Y440098D02*
X592799Y441298D01*
X590400D01*
X589200Y440098D01*
Y438898D01*
X590400Y437699D01*
X592799D01*
X593998Y436499D01*
Y435300D01*
X592799Y434100D01*
X590400D01*
X589200Y435300D01*
X596398Y438898D02*
Y435300D01*
X597597Y434100D01*
X601196D01*
Y432900D01*
X599997Y431701D01*
X598797D01*
X601196Y434100D02*
Y438898D01*
X603595Y434100D02*
Y438898D01*
X604795D01*
X605995Y437699D01*
Y434100D01*
Y437699D01*
X607194Y438898D01*
X608394Y437699D01*
Y434100D01*
X610793Y441298D02*
Y434100D01*
X614392D01*
X615591Y435300D01*
Y436499D01*
Y437699D01*
X614392Y438898D01*
X610793D01*
X619190Y434100D02*
X621590D01*
X622789Y435300D01*
Y437699D01*
X621590Y438898D01*
X619190D01*
X617991Y437699D01*
Y435300D01*
X619190Y434100D01*
X625188D02*
X627588D01*
X626388D01*
Y441298D01*
X625188D01*
X639588D02*
Y434100D01*
Y437699D01*
X644386D01*
Y441298D01*
Y434100D01*
X646785D02*
X649185D01*
X647985D01*
Y438898D01*
X646785D01*
X653983Y440098D02*
Y438898D01*
X652783D01*
X655183D01*
X653983D01*
Y435300D01*
X655183Y434100D01*
X670778Y440098D02*
X669578Y441298D01*
X667179D01*
X665979Y440098D01*
Y435300D01*
X667179Y434100D01*
X669578D01*
X670778Y435300D01*
X674376Y434100D02*
X676776D01*
X677975Y435300D01*
Y437699D01*
X676776Y438898D01*
X674376D01*
X673177Y437699D01*
Y435300D01*
X674376Y434100D01*
X680374Y438898D02*
Y435300D01*
X681574Y434100D01*
X685173D01*
Y438898D01*
X687572Y434100D02*
Y438898D01*
X691171D01*
X692371Y437699D01*
Y434100D01*
X695969Y440098D02*
Y438898D01*
X694770D01*
X697169D01*
X695969D01*
Y435300D01*
X697169Y434100D01*
X713967Y441298D02*
X709169D01*
Y437699D01*
X711568D01*
X709169D01*
Y434100D01*
X716367D02*
X718766D01*
X717566D01*
Y438898D01*
X716367D01*
X722365Y434100D02*
Y438898D01*
X725963D01*
X727163Y437699D01*
Y434100D01*
X729562D02*
X731961D01*
X730762D01*
Y438898D01*
X729562D01*
X735560Y434100D02*
X739159D01*
X740359Y435300D01*
X739159Y436499D01*
X736760D01*
X735560Y437699D01*
X736760Y438898D01*
X740359D01*
X742758Y441298D02*
Y434100D01*
Y437699D01*
X743958Y438898D01*
X746357D01*
X747556Y437699D01*
Y434100D01*
X753555D02*
X751155D01*
X749956Y435300D01*
Y437699D01*
X751155Y438898D01*
X753555D01*
X754754Y437699D01*
Y436499D01*
X749956D01*
X761952Y441298D02*
Y434100D01*
X758353D01*
X757153Y435300D01*
Y437699D01*
X758353Y438898D01*
X761952D01*
X771549Y441298D02*
Y434100D01*
Y437699D01*
X776347D01*
Y441298D01*
Y434100D01*
X779946D02*
X782345D01*
X783545Y435300D01*
Y437699D01*
X782345Y438898D01*
X779946D01*
X778746Y437699D01*
Y435300D01*
X779946Y434100D01*
X785944D02*
X788343D01*
X787144D01*
Y441298D01*
X785944D01*
X795541Y434100D02*
X793142D01*
X791942Y435300D01*
Y437699D01*
X793142Y438898D01*
X795541D01*
X796741Y437699D01*
Y436499D01*
X791942D01*
X811136Y440098D02*
X809936Y441298D01*
X807537D01*
X806338Y440098D01*
Y438898D01*
X807537Y437699D01*
X809936D01*
X811136Y436499D01*
Y435300D01*
X809936Y434100D01*
X807537D01*
X806338Y435300D01*
X813535Y434100D02*
X815934D01*
X814735D01*
Y438898D01*
X813535D01*
X819533D02*
X824332D01*
X819533Y434100D01*
X824332D01*
X830330D02*
X827931D01*
X826731Y435300D01*
Y437699D01*
X827931Y438898D01*
X830330D01*
X831529Y437699D01*
Y436499D01*
X826731D01*
X843529Y434100D02*
Y441298D01*
X847128D01*
X848328Y440098D01*
Y437699D01*
X847128Y436499D01*
X843529D01*
X850727Y434100D02*
X853126D01*
X851927D01*
Y441298D01*
X850727D01*
X857925Y438898D02*
X860324D01*
X861524Y437699D01*
Y434100D01*
X857925D01*
X856725Y435300D01*
X857925Y436499D01*
X861524D01*
X865122Y440098D02*
Y438898D01*
X863923D01*
X866322D01*
X865122D01*
Y435300D01*
X866322Y434100D01*
X873520D02*
X871120D01*
X869921Y435300D01*
Y437699D01*
X871120Y438898D01*
X873520D01*
X874719Y437699D01*
Y436499D01*
X869921D01*
X881917Y441298D02*
Y434100D01*
X878318D01*
X877118Y435300D01*
Y437699D01*
X878318Y438898D01*
X881917D01*
X893917Y441298D02*
Y434100D01*
Y437699D01*
X898715D01*
Y441298D01*
Y434100D01*
X902314D02*
X904713D01*
X905913Y435300D01*
Y437699D01*
X904713Y438898D01*
X902314D01*
X901115Y437699D01*
Y435300D01*
X902314Y434100D01*
X908312D02*
X910711D01*
X909512D01*
Y441298D01*
X908312D01*
X917909Y434100D02*
X915510D01*
X914310Y435300D01*
Y437699D01*
X915510Y438898D01*
X917909D01*
X919109Y437699D01*
Y436499D01*
X914310D01*
X928706Y441298D02*
X933504D01*
X931105D01*
Y434100D01*
X935903Y438898D02*
Y435300D01*
X937103Y434100D01*
X940702D01*
Y432900D01*
X939502Y431701D01*
X938303D01*
X940702Y434100D02*
Y438898D01*
X943101Y431701D02*
Y438898D01*
X946700D01*
X947899Y437699D01*
Y435300D01*
X946700Y434100D01*
X943101D01*
X953897D02*
X951498D01*
X950299Y435300D01*
Y437699D01*
X951498Y438898D01*
X953897D01*
X955097Y437699D01*
Y436499D01*
X950299D01*
X580400Y444900D02*
X967097D01*
X580400Y428700D02*
X967097D01*
X580400Y444900D02*
Y356700D01*
X967097Y444900D02*
Y356700D01*
X635188Y444900D02*
Y356700D01*
X704769Y444900D02*
Y356700D01*
X839129Y444900D02*
Y356700D01*
X889517Y444900D02*
Y356700D01*
X580400Y368700D02*
X967097D01*
X580400Y356700D02*
X967097D01*
M02*
