%FSLAX25Y25*%
%MOIN*%
G70*
G01*
G75*
%ADD10R,0.03937X0.07874*%
%ADD11R,0.03543X0.03740*%
%ADD12R,0.03937X0.05709*%
%ADD13R,0.03740X0.03543*%
%ADD14O,0.02000X0.04000*%
%ADD15R,0.02000X0.04000*%
%ADD16O,0.01181X0.07087*%
%ADD17O,0.07087X0.01181*%
%ADD18O,0.02400X0.08000*%
%ADD19C,0.01000*%
%ADD20C,0.05512*%
%ADD21R,0.05512X0.05512*%
%ADD22O,0.05512X0.04724*%
%ADD23R,0.05512X0.04724*%
%ADD24C,0.07284*%
%ADD25R,0.07284X0.07284*%
%ADD26C,0.19685*%
%ADD27C,0.03000*%
%ADD28C,0.00787*%
%ADD29C,0.00984*%
%ADD30C,0.02362*%
%ADD31C,0.00394*%
%ADD32C,0.00800*%
%ADD33R,0.04737X0.08674*%
%ADD34R,0.04343X0.04540*%
%ADD35R,0.04737X0.06509*%
%ADD36R,0.04540X0.04343*%
%ADD37O,0.02800X0.04800*%
%ADD38R,0.02800X0.04800*%
%ADD39O,0.01981X0.07887*%
%ADD40O,0.07887X0.01981*%
%ADD41O,0.03200X0.08800*%
%ADD42C,0.06312*%
%ADD43R,0.06312X0.06312*%
%ADD44O,0.06312X0.05524*%
%ADD45R,0.06312X0.05524*%
%ADD46C,0.08083*%
%ADD47R,0.08083X0.08083*%
%ADD48C,0.20485*%
%ADD49C,0.03800*%
%ADD50C,0.00500*%
%ADD51C,0.00667*%
%ADD52C,0.01600*%
D50*
X448032Y397000D02*
X451968D01*
X450000Y395031D02*
Y398969D01*
X438031Y397000D02*
X441968D01*
X440000Y395031D02*
Y398969D01*
X428031Y397000D02*
X431968D01*
X430000Y395031D02*
Y398969D01*
X458032Y397000D02*
X461969D01*
X460000Y395031D02*
Y398969D01*
X518915Y447563D02*
X522065D01*
X520490Y445988D02*
Y449138D01*
X518915Y463311D02*
X522065D01*
X520490Y461736D02*
Y464886D01*
X518915Y455437D02*
X522065D01*
X520490Y453862D02*
Y457012D01*
X382531Y396500D02*
X386469D01*
X384500Y394531D02*
Y398468D01*
X372532Y396500D02*
X376468D01*
X374500Y394531D02*
Y398468D01*
X362531Y396500D02*
X366469D01*
X364500Y394531D02*
Y398468D01*
X392531Y396500D02*
X396468D01*
X394500Y394531D02*
Y398468D01*
X359335Y591000D02*
X363665D01*
X361500Y588835D02*
Y593165D01*
X359335Y571000D02*
X363665D01*
X361500Y568835D02*
Y573165D01*
X518925Y411663D02*
X522075D01*
X520500Y410088D02*
Y413238D01*
X518925Y427411D02*
X522075D01*
X520500Y425836D02*
Y428986D01*
X518925Y419537D02*
X522075D01*
X520500Y417962D02*
Y421112D01*
X515625Y563637D02*
X518775D01*
X517200Y562062D02*
Y565212D01*
X515625Y547889D02*
X518775D01*
X517200Y546314D02*
Y549464D01*
X515625Y540015D02*
X518775D01*
X517200Y538440D02*
Y541590D01*
X515625Y555763D02*
X518775D01*
X517200Y554188D02*
Y557338D01*
X334504Y594702D02*
X347496D01*
X341000Y588205D02*
Y601198D01*
X513504Y594702D02*
X526496D01*
X520000Y588205D02*
Y601198D01*
X513504Y392402D02*
X526496D01*
X520000Y385906D02*
Y398898D01*
X334704Y392402D02*
X347696D01*
X341200Y385906D02*
Y398898D01*
X515425Y515437D02*
X518575D01*
X517000Y513862D02*
Y517012D01*
X515425Y499689D02*
X518575D01*
X517000Y498114D02*
Y501264D01*
X515425Y491815D02*
X518575D01*
X517000Y490240D02*
Y493390D01*
X515425Y507563D02*
X518575D01*
X517000Y505988D02*
Y509138D01*
X479990Y598000D02*
X481490D01*
X480740Y597250D02*
Y598750D01*
X456750Y466000D02*
X458250D01*
X457500Y465250D02*
Y466750D01*
X494650Y418800D02*
X496150D01*
X495400Y418050D02*
Y419550D01*
X479750Y580000D02*
X481250D01*
X480500Y579250D02*
Y580750D01*
X441750Y455500D02*
X443250D01*
X442500Y454750D02*
Y456250D01*
X424250Y455500D02*
X425750D01*
X425000Y454750D02*
Y456250D01*
X456750Y459500D02*
X458250D01*
X457500Y458750D02*
Y460250D01*
X447350Y462400D02*
X448850D01*
X448100Y461650D02*
Y463150D01*
X439950Y486100D02*
X441450D01*
X440700Y485350D02*
Y486850D01*
X424850Y514500D02*
X426350D01*
X425600Y513750D02*
Y515250D01*
X442250Y419400D02*
X443750D01*
X443000Y418650D02*
Y420150D01*
M02*
