%FSLAX25Y25*%
%MOIN*%
G70*
G01*
G75*
G04 Layer_Color=255*
%ADD10O,0.02400X0.08000*%
%ADD11R,0.03740X0.03543*%
%ADD12R,0.03543X0.03740*%
%ADD13O,0.07087X0.01181*%
%ADD14O,0.01181X0.07087*%
%ADD15R,0.02000X0.04000*%
%ADD16O,0.02000X0.04000*%
%ADD17R,0.03937X0.05709*%
%ADD18R,0.03937X0.07874*%
%ADD19C,0.01000*%
%ADD20O,0.05512X0.04724*%
%ADD21R,0.05512X0.04724*%
%ADD22C,0.19685*%
%ADD23R,0.07284X0.07284*%
%ADD24C,0.07284*%
%ADD25C,0.05512*%
%ADD26R,0.05512X0.05512*%
%ADD27C,0.03000*%
D20*
X517000Y507563D02*
D03*
Y499689D02*
D03*
Y515437D02*
D03*
X517200Y555763D02*
D03*
Y547889D02*
D03*
Y563637D02*
D03*
X520500Y419537D02*
D03*
Y411663D02*
D03*
X520490Y455437D02*
D03*
Y447563D02*
D03*
D21*
X517000Y491815D02*
D03*
X517200Y540015D02*
D03*
X520500Y427411D02*
D03*
X520490Y463311D02*
D03*
D22*
X341200Y392402D02*
D03*
X520000D02*
D03*
Y594702D02*
D03*
X341000D02*
D03*
D23*
X361500Y571000D02*
D03*
D24*
Y591000D02*
D03*
D25*
X394500Y396500D02*
D03*
X374500D02*
D03*
X384500D02*
D03*
X460000Y397000D02*
D03*
X440000D02*
D03*
X450000D02*
D03*
D26*
X364500Y396500D02*
D03*
X430000Y397000D02*
D03*
M02*
