%FSLAX25Y25*%
%MOIN*%
G70*
G01*
G75*
G04 Layer_Color=16711935*
%ADD10R,0.03937X0.07874*%
%ADD11R,0.03543X0.03740*%
%ADD12R,0.03937X0.05709*%
%ADD13R,0.03740X0.03543*%
%ADD14O,0.02000X0.04000*%
%ADD15R,0.02000X0.04000*%
%ADD16O,0.01181X0.07087*%
%ADD17O,0.07087X0.01181*%
%ADD18O,0.02400X0.08000*%
%ADD19C,0.01000*%
%ADD20C,0.05512*%
%ADD21R,0.05512X0.05512*%
%ADD22O,0.05512X0.04724*%
%ADD23R,0.05512X0.04724*%
%ADD24C,0.07284*%
%ADD25R,0.07284X0.07284*%
%ADD26C,0.19685*%
%ADD27C,0.03000*%
%ADD28C,0.00787*%
%ADD29C,0.00984*%
%ADD30C,0.02362*%
%ADD31C,0.00394*%
%ADD32C,0.00800*%
%ADD33R,0.04737X0.08674*%
%ADD34R,0.04343X0.04540*%
%ADD35R,0.04737X0.06509*%
%ADD36R,0.04540X0.04343*%
%ADD37O,0.02800X0.04800*%
%ADD38R,0.02800X0.04800*%
%ADD39O,0.01981X0.07887*%
%ADD40O,0.07887X0.01981*%
%ADD41O,0.03200X0.08800*%
%ADD42C,0.06312*%
%ADD43R,0.06312X0.06312*%
%ADD44O,0.06312X0.05524*%
%ADD45R,0.06312X0.05524*%
%ADD46C,0.08083*%
%ADD47R,0.08083X0.08083*%
%ADD48C,0.20485*%
%ADD49C,0.03800*%
D19*
X340900Y605500D02*
G03*
X330400Y594900I50J-10550D01*
G01*
X530700Y594800D02*
G03*
X520000Y605500I-10817J-117D01*
G01*
X520100Y381800D02*
G03*
X530700Y392400I73J10527D01*
G01*
X330400Y392600D02*
G03*
X341400Y381800I10900J100D01*
G01*
D42*
X450000Y397000D02*
D03*
X440000D02*
D03*
X460000D02*
D03*
X384500Y396500D02*
D03*
X374500D02*
D03*
X394500D02*
D03*
D43*
X430000Y397000D02*
D03*
X364500Y396500D02*
D03*
D44*
X520490Y447563D02*
D03*
Y455437D02*
D03*
X520500Y411663D02*
D03*
Y419537D02*
D03*
X517200Y563637D02*
D03*
Y547889D02*
D03*
Y555763D02*
D03*
X517000Y515437D02*
D03*
Y499689D02*
D03*
Y507563D02*
D03*
D45*
X520490Y463311D02*
D03*
X520500Y427411D02*
D03*
X517200Y540015D02*
D03*
X517000Y491815D02*
D03*
D46*
X361500Y591000D02*
D03*
D47*
Y571000D02*
D03*
D48*
X341000Y594702D02*
D03*
X520000D02*
D03*
Y392402D02*
D03*
X341200D02*
D03*
D49*
X480740Y598000D02*
D03*
X457500Y466000D02*
D03*
X495400Y418800D02*
D03*
X480500Y580000D02*
D03*
X442500Y455500D02*
D03*
X425000D02*
D03*
X457500Y459500D02*
D03*
X448100Y462400D02*
D03*
X440700Y486100D02*
D03*
X425600Y514500D02*
D03*
X443000Y419400D02*
D03*
M02*
